<svg width="30" height="30" viewBox="0 0 30 30" fill="none" xmlns="http://www.w3.org/2000/svg">
<path d="M15 16.125C15.6213 16.125 16.125 15.6213 16.125 15C16.125 14.3787 15.6213 13.875 15 13.875C14.3787 13.875 13.875 14.3787 13.875 15C13.875 15.6213 14.3787 16.125 15 16.125Z" fill="#434345"/>
<path d="M21 16.125C21.6213 16.125 22.125 15.6213 22.125 15C22.125 14.3787 21.6213 13.875 21 13.875C20.3787 13.875 19.875 14.3787 19.875 15C19.875 15.6213 20.3787 16.125 21 16.125Z" fill="#434345"/>
<path d="M9 16.125C9.62132 16.125 10.125 15.6213 10.125 15C10.125 14.3787 9.62132 13.875 9 13.875C8.37868 13.875 7.875 14.3787 7.875 15C7.875 15.6213 8.37868 16.125 9 16.125Z" fill="#434345"/>
</svg>
