<svg width="28" height="27" viewBox="0 0 28 27" fill="none" xmlns="http://www.w3.org/2000/svg">
<path d="M12 8C12 7.60444 12.1173 7.21776 12.3371 6.88886C12.5568 6.55996 12.8692 6.30362 13.2346 6.15224C13.6001 6.00087 14.0022 5.96126 14.3902 6.03843C14.7781 6.1156 15.1345 6.30608 15.4142 6.58579C15.6939 6.86549 15.8844 7.22186 15.9616 7.60982C16.0387 7.99778 15.9991 8.39991 15.8478 8.76537C15.6964 9.13082 15.44 9.44318 15.1111 9.66294C14.7822 9.8827 14.3956 10 14 10C13.4696 10 12.9609 9.78929 12.5858 9.41421C12.2107 9.03914 12 8.53043 12 8ZM6 8C6 5.87827 6.84285 3.84344 8.34315 2.34315C9.84344 0.842855 11.8783 0 14 0C16.1217 0 18.1566 0.842855 19.6569 2.34315C21.1571 3.84344 22 5.87827 22 8C22 15.4938 14.8025 19.6925 14.5 19.8687C14.3489 19.9551 14.1778 20.0006 14.0037 20.0006C13.8297 20.0006 13.6586 19.9551 13.5075 19.8687C13.1975 19.6925 6 15.5 6 8ZM8 8C8 13.275 12.48 16.7763 14 17.8125C15.5187 16.7775 20 13.275 20 8C20 6.4087 19.3679 4.88258 18.2426 3.75736C17.1174 2.63214 15.5913 2 14 2C12.4087 2 10.8826 2.63214 9.75736 3.75736C8.63214 4.88258 8 6.4087 8 8ZM23.3463 16.4538C23.1001 16.3724 22.832 16.3899 22.5985 16.5024C22.365 16.6149 22.1843 16.8137 22.0945 17.0568C22.0047 17.3 22.0128 17.5685 22.1171 17.8058C22.2215 18.0431 22.4139 18.2306 22.6537 18.3288C24.7175 19.0925 26 20.115 26 21C26 22.67 21.435 25 14 25C6.565 25 2 22.67 2 21C2 20.115 3.2825 19.0925 5.34625 18.33C5.58614 18.2318 5.77853 18.0443 5.88286 17.807C5.98719 17.5697 5.99531 17.3012 5.90551 17.0581C5.8157 16.8149 5.63499 16.6161 5.40147 16.5036C5.16795 16.3911 4.89987 16.3737 4.65375 16.455C1.6525 17.5612 0 19.1762 0 21C0 24.8975 7.21375 27 14 27C20.7863 27 28 24.8975 28 21C28 19.1762 26.3475 17.5613 23.3463 16.4538Z" fill="#1E1E20"/>
</svg>
