<svg width="20" height="20" viewBox="0 0 20 20" fill="none" xmlns="http://www.w3.org/2000/svg">
<path fill-rule="evenodd" clip-rule="evenodd" d="M10.0349 3.12499C7.31476 3.11023 5.01183 5.42978 5.01562 8.12412L5.01562 8.125L5.01562 8.75C5.01562 11.6348 4.41076 13.3721 3.83032 14.375H16.1697C15.5892 13.3721 14.9844 11.6348 14.9844 8.75V8.19531C14.9844 5.42593 12.7738 3.14607 10.0349 3.12499ZM3.76562 8.12544C3.76111 4.74169 6.62412 1.85599 10.0425 1.87501L10.0438 1.87502C13.4921 1.90114 16.2344 4.76177 16.2344 8.19531V8.75C16.2344 11.4583 16.8011 12.9709 17.2518 13.7494L17.2522 13.75C17.3617 13.9397 17.4195 14.1548 17.4197 14.3739C17.4199 14.5929 17.3625 14.8082 17.2533 14.9981C17.1441 15.188 16.9869 15.3459 16.7975 15.4559C16.6081 15.5659 16.3931 15.6242 16.1741 15.625L16.1719 15.625H3.82812L3.82592 15.625C3.60688 15.6242 3.39188 15.5659 3.20246 15.4559C3.01305 15.3459 2.85588 15.188 2.74669 14.9981C2.6375 14.8082 2.58013 14.5929 2.58032 14.3739C2.58052 14.1548 2.63827 13.9397 2.74779 13.75L2.74817 13.7494C3.19887 12.9709 3.76562 11.4583 3.76562 8.75V8.12544Z" fill="white"/>
<path fill-rule="evenodd" clip-rule="evenodd" d="M7.5 14.375C7.84517 14.375 8.125 14.6548 8.125 15V15.625C8.125 16.1223 8.32254 16.5992 8.67417 16.9508C9.0258 17.3025 9.50272 17.5 10 17.5C10.4973 17.5 10.9742 17.3025 11.3258 16.9508C11.6775 16.5992 11.875 16.1223 11.875 15.625V15C11.875 14.6548 12.1548 14.375 12.5 14.375C12.8452 14.375 13.125 14.6548 13.125 15V15.625C13.125 16.4538 12.7958 17.2487 12.2097 17.8347C11.6237 18.4208 10.8288 18.75 10 18.75C9.17119 18.75 8.37634 18.4208 7.79029 17.8347C7.20424 17.2487 6.875 16.4538 6.875 15.625V15C6.875 14.6548 7.15482 14.375 7.5 14.375Z" fill="white"/>
</svg>
