<svg width="18" height="22" viewBox="0 0 18 22" fill="none" xmlns="http://www.w3.org/2000/svg">
<path fill-rule="evenodd" clip-rule="evenodd" d="M8.15625 4.8125C5.20498 4.8125 2.8125 7.20498 2.8125 10.1562C2.8125 13.1075 5.20498 15.5 8.15625 15.5C11.1075 15.5 13.5 13.1075 13.5 10.1562C13.5 7.20498 11.1075 4.8125 8.15625 4.8125ZM1.6875 10.1562C1.6875 6.58366 4.58366 3.6875 8.15625 3.6875C11.7288 3.6875 14.625 6.58366 14.625 10.1562C14.625 13.7288 11.7288 16.625 8.15625 16.625C4.58366 16.625 1.6875 13.7288 1.6875 10.1562Z" fill="#434345"/>
<path fill-rule="evenodd" clip-rule="evenodd" d="M11.9351 13.9351C12.1547 13.7154 12.5109 13.7154 12.7306 13.9351L16.1477 17.3523C16.3674 17.5719 16.3674 17.9281 16.1477 18.1477C15.9281 18.3674 15.5719 18.3674 15.3523 18.1477L11.9351 14.7306C11.7154 14.5109 11.7154 14.1547 11.9351 13.9351Z" fill="#434345"/>
</svg>
