<svg width="20" height="20" viewBox="0 0 20 20" fill="none" xmlns="http://www.w3.org/2000/svg">
<path d="M16.7775 16.5398L11.8869 8.85391L16.7127 3.54531C16.8218 3.42228 16.8781 3.2612 16.8692 3.09697C16.8604 2.93275 16.7872 2.77862 16.6655 2.66801C16.5438 2.5574 16.3833 2.49923 16.219 2.50609C16.0547 2.51296 15.8997 2.58431 15.7877 2.70469L11.1908 7.76094L8.0275 2.78984C7.97109 2.70106 7.89319 2.62795 7.80101 2.57728C7.70883 2.52661 7.60535 2.50003 7.50016 2.5H3.75016C3.6381 2.49995 3.52808 2.53002 3.43163 2.58708C3.33518 2.64413 3.25585 2.72607 3.20194 2.82431C3.14802 2.92255 3.12152 3.03348 3.12519 3.14548C3.12886 3.25749 3.16258 3.36644 3.22281 3.46094L8.11344 11.1461L3.28766 16.4586C3.2313 16.5191 3.18752 16.5902 3.15886 16.6678C3.13019 16.7454 3.11721 16.8279 3.12066 16.9105C3.12411 16.9932 3.14393 17.0743 3.17897 17.1492C3.21401 17.2241 3.26357 17.2914 3.32477 17.347C3.38598 17.4026 3.45762 17.4455 3.53554 17.4733C3.61346 17.501 3.69611 17.513 3.77869 17.5085C3.86128 17.5041 3.94216 17.4833 4.01666 17.4474C4.09115 17.4114 4.15777 17.3611 4.21266 17.2992L8.80953 12.243L11.9728 17.2141C12.0297 17.3021 12.1078 17.3745 12.1999 17.4244C12.2921 17.4744 12.3953 17.5004 12.5002 17.5H16.2502C16.3621 17.5 16.472 17.4699 16.5683 17.4128C16.6646 17.3558 16.7439 17.274 16.7978 17.1759C16.8517 17.0778 16.8782 16.967 16.8747 16.8551C16.8711 16.7432 16.8375 16.6343 16.7775 16.5398ZM12.8431 16.25L4.88844 3.75H7.15406L15.1119 16.25H12.8431Z" fill="#C3C3C4"/>
</svg>
